# xmcd
#
# Track frame offsets: 
#        150
#        15157
#        30242
#        46367
#        61635
#        75236
#        89919
#        103583
#        120310
#        134793
#
# Disc length: 1980 seconds
#
# Revision: 0
# Processed by: cddbd v1.5.2PL0 Copyright (c) Steve Scherf et al.
# Submitted via: ExactAudioCopyFreeDBPlugin 1.0
#
DISCID=6e07ba0a
DTITLE=Greenwood, Lee - Good Old Country
DYEAR=2000
DGENRE=Country
TTITLE0=Dixie Road
TTITLE1=Going Going Gone
TTITLE2=Somebody's Gonna Love You
TTITLE3=I Don't Mind The Thorns (If You're The Rose)
TTITLE4=Hearts Aren't Made To Break (They're Made To Love)
TTITLE5=Mornin' Ride
TTITLE6=Don't Underestimate My Love
TTITLE7=Fool's Gold
TTITLE8=God Bless The U.S.A.
TTITLE9=I.O.U.
EXTD=
EXTT0=
EXTT1=
EXTT2=
EXTT3=
EXTT4=
EXTT5=
EXTT6=
EXTT7=
EXTT8=
EXTT9=
PLAYORDER=
